<svg xmlns="http://www.w3.org/2000/svg" viewBox="0 0 55.39 63.94"><g id="Layer_2" data-name="Layer 2"><g id="Layer_1-2" data-name="Layer 1"><path d="M55.38,16,27.68,0,0,16V48l27.7,16,27.68-16ZM53.53,46.76l-.1.17L28.64,61.26V32.51L53.52,18.13ZM26.75,3.31h1.86V2.69l24,13.83L27.71,30.9,2.8,16.53l24-13.84ZM1.88,46.83l0-28.69L26.78,32.51V61.26L1.93,46.92Z"/><rect x="22.75" y="33.26" width="2.2" height="1.86" transform="translate(-13.91 16.52) rotate(-30.03)"/><rect x="3.66" y="44.28" width="2.2" height="1.86" transform="translate(-21.99 8.45) rotate(-30.03)"/><rect x="11.3" y="39.87" width="2.2" height="1.86" transform="translate(-18.76 11.68) rotate(-30.03)"/><rect x="7.48" y="42.08" width="2.2" height="1.86" transform="translate(-20.37 10.07) rotate(-30.03)"/><rect x="15.11" y="37.66" width="2.21" height="1.86" transform="translate(-17.14 13.3) rotate(-30.03)"/><rect x="18.93" y="35.46" width="2.21" height="1.86" transform="translate(-15.52 14.91) rotate(-30.03)"/><rect x="34.4" y="35.28" width="1.86" height="2.2" transform="translate(-13.84 48.82) rotate(-60.03)"/><rect x="38.22" y="37.48" width="1.86" height="2.21" transform="translate(-13.84 53.21) rotate(-60.01)"/><rect x="45.86" y="41.89" width="1.86" height="2.2" transform="translate(-13.83 62.05) rotate(-60.03)"/><rect x="49.68" y="44.1" width="1.86" height="2.2" transform="translate(-13.83 66.46) rotate(-60.03)"/><rect x="42.04" y="39.69" width="1.86" height="2.2" transform="translate(-13.83 57.63) rotate(-60.02)"/><rect x="30.58" y="33.08" width="1.86" height="2.2" transform="translate(-13.84 44.43) rotate(-60.05)"/><rect x="26.76" y="5.54" width="1.86" height="2.23"/><rect x="26.76" y="14.48" width="1.86" height="2.23"/><rect x="26.76" y="10.01" width="1.86" height="2.23"/><rect x="26.77" y="18.94" width="1.86" height="2.23"/><rect x="26.77" y="23.41" width="1.86" height="2.23"/><rect x="26.78" y="27.88" width="1.86" height="2.23"/></g></g></svg>