<svg xmlns="http://www.w3.org/2000/svg" viewBox="0 0 542.01 138"><defs><style>.cls-1{fill:#fff;}</style></defs><g id="Layer_2" data-name="Layer 2"><g id="Layer_1-2" data-name="Layer 1"><path class="cls-1" d="M11.92,135.15,0,81.6a1.73,1.73,0,0,1,1.69-2.11H21.52a1.73,1.73,0,0,1,1.72,1.6c.72,9.91,1.5,20.21,2.28,33.77h.58c2.31-14,3-21.87,5.12-33.93a1.75,1.75,0,0,1,1.71-1.44H50.24A1.73,1.73,0,0,1,52,81c1.91,12.46,2.9,19.63,4.81,33.16h.58c.47-8.86,1.68-23.2,2.51-33.05a1.74,1.74,0,0,1,1.73-1.58H79.47a1.73,1.73,0,0,1,1.68,2.12L68.89,135.17a1.73,1.73,0,0,1-1.69,1.34H47a1.73,1.73,0,0,1-1.71-1.45c-1.68-9.88-2.82-17.71-4.71-29.37h-.42c-1.57,10.72-3.08,19.19-4.65,29.35a1.73,1.73,0,0,1-1.71,1.47H13.61A1.72,1.72,0,0,1,11.92,135.15Z"/><path class="cls-1" d="M101.17,129l-1.31,6.18a1.73,1.73,0,0,1-1.7,1.37H79.87a1.73,1.73,0,0,1-1.67-2.2l15-53.56a1.74,1.74,0,0,1,1.67-1.26h27.71a1.73,1.73,0,0,1,1.66,1.25l15.45,53.56a1.73,1.73,0,0,1-1.66,2.21H118.08a1.73,1.73,0,0,1-1.7-1.37L115.06,129a1.72,1.72,0,0,0-1.69-1.37h-10.5A1.74,1.74,0,0,0,101.17,129Zm8.41-16.41a1.73,1.73,0,0,0,1.71-2c-.83-4.77-2.2-11.92-3.13-17.15h-.5c-1,6-2,12-3,17.13a1.73,1.73,0,0,0,1.7,2Z"/><path class="cls-1" d="M152.06,135.32,134.52,81.76a1.73,1.73,0,0,1,1.65-2.27h20.11A1.73,1.73,0,0,1,158,80.83l4.73,20.64c1.74,7.11,2.23,10.33,3.47,17.44h.41a162.35,162.35,0,0,1,3.31-17.27l4.66-20.8a1.72,1.72,0,0,1,1.69-1.35h19.68a1.73,1.73,0,0,1,1.64,2.28l-17.85,53.56a1.73,1.73,0,0,1-1.65,1.18H153.71A1.74,1.74,0,0,1,152.06,135.32Z"/><path class="cls-1" d="M246.33,115.36H225.75a1.73,1.73,0,0,0-1.74,1.73v2.65a1.73,1.73,0,0,0,1.74,1.73h23.67a1.73,1.73,0,0,1,1.71,2l-1.84,11.57a1.74,1.74,0,0,1-1.71,1.46H204a1.73,1.73,0,0,1-1.73-1.73V81.22A1.73,1.73,0,0,1,204,79.49h43.31a1.73,1.73,0,0,1,1.74,1.73V92.8a1.74,1.74,0,0,1-1.74,1.73H225.75A1.74,1.74,0,0,0,224,96.26v2.32a1.73,1.73,0,0,0,1.74,1.73h20.58a1.73,1.73,0,0,1,1.73,1.74v11.57A1.73,1.73,0,0,1,246.33,115.36Z"/><path class="cls-1" d="M289.66,118.58a1.75,1.75,0,0,1,1.69,1.36c.81,3.1,3.2,4.51,6.62,4.51,3.23,0,5-.91,5-3.14,0-2.57-2.15-3.39-10.49-5.54-18.35-4.71-21.16-11.32-21.16-19.09,0-8.27,5.78-18.68,25.7-18.68,17.09,0,25.07,7.53,26.69,16.51a1.72,1.72,0,0,1-1.71,2h-17.6a1.7,1.7,0,0,1-1.65-1.24c-.58-2.2-2.07-3.63-5.23-3.63-2.48,0-4,.74-4,2.64,0,2.07,1.82,2.73,10.17,5,19.25,5.29,22.14,12,22.14,19.92C325.82,130,317.31,138,298,138c-17,0-26.05-7.15-27.91-17.4a1.73,1.73,0,0,1,1.72-2Z"/><path class="cls-1" d="M341,94.53H329.62a1.74,1.74,0,0,1-1.74-1.73V81.22a1.73,1.73,0,0,1,1.74-1.73h48.85a1.73,1.73,0,0,1,1.73,1.73V92.8a1.74,1.74,0,0,1-1.73,1.73H367.3a1.74,1.74,0,0,0-1.73,1.73v38.52a1.73,1.73,0,0,1-1.73,1.73H344.49a1.73,1.73,0,0,1-1.73-1.73V96.26A1.73,1.73,0,0,0,341,94.53Z"/><path class="cls-1" d="M399.41,129l-1.32,6.18a1.73,1.73,0,0,1-1.7,1.37H378.1a1.73,1.73,0,0,1-1.67-2.2l15-53.56a1.74,1.74,0,0,1,1.67-1.26h27.71a1.73,1.73,0,0,1,1.66,1.25L437.9,134.3a1.73,1.73,0,0,1-1.66,2.21H416.31a1.73,1.73,0,0,1-1.7-1.37L413.3,129a1.74,1.74,0,0,0-1.7-1.37H401.1A1.72,1.72,0,0,0,399.41,129Zm8.4-16.41a1.73,1.73,0,0,0,1.71-2c-.83-4.77-2.2-11.92-3.13-17.15h-.49c-1,6-2,12-3,17.13a1.73,1.73,0,0,0,1.7,2Z"/><path class="cls-1" d="M447.3,94.53H435.89a1.74,1.74,0,0,1-1.74-1.73V81.22a1.73,1.73,0,0,1,1.74-1.73h48.85a1.73,1.73,0,0,1,1.73,1.73V92.8a1.74,1.74,0,0,1-1.73,1.73H473.57a1.74,1.74,0,0,0-1.73,1.73v38.52a1.73,1.73,0,0,1-1.73,1.73H450.76a1.73,1.73,0,0,1-1.73-1.73V96.26A1.74,1.74,0,0,0,447.3,94.53Z"/><path class="cls-1" d="M536.38,115.36H515.8a1.72,1.72,0,0,0-1.73,1.73v2.65a1.72,1.72,0,0,0,1.73,1.73h23.67a1.73,1.73,0,0,1,1.71,2l-1.84,11.57a1.73,1.73,0,0,1-1.71,1.46H494.06a1.73,1.73,0,0,1-1.73-1.73V81.22a1.73,1.73,0,0,1,1.73-1.73h43.31a1.73,1.73,0,0,1,1.74,1.73V92.8a1.74,1.74,0,0,1-1.74,1.73H515.8a1.73,1.73,0,0,0-1.73,1.73v2.32a1.72,1.72,0,0,0,1.73,1.73h20.58a1.73,1.73,0,0,1,1.73,1.74v11.57A1.73,1.73,0,0,1,536.38,115.36Z"/><path class="cls-1" d="M42.76,72.67c.1-.66.2-1.31.3-2h.41c.11.67.22,1.33.32,2h15C57.39,63,56.44,56.28,54.85,46a1.72,1.72,0,0,0-1.71-1.47H35.83a1.75,1.75,0,0,0-1.71,1.44c-1.72,9.83-2.5,16.88-4,26.74Z"/><path class="cls-1" d="M78.09,72.67l6-26.06a1.73,1.73,0,0,0-1.69-2.12H64.48a1.72,1.72,0,0,0-1.72,1.58c-.65,7.71-1.53,18.17-2.11,26.6Z"/><path class="cls-1" d="M8.73,72.67H28c-.64-10.16-1.27-18.49-1.85-26.58a1.73,1.73,0,0,0-1.73-1.6H4.64A1.73,1.73,0,0,0,3,46.6Z"/><path class="cls-1" d="M108.1,72.67c.8-4.44,1.63-9.41,2.47-14.3h.49c.77,4.27,1.81,9.81,2.62,14.3h21.21l-7.76-26.93a1.74,1.74,0,0,0-1.67-1.25H97.75a1.74,1.74,0,0,0-1.67,1.26L88.55,72.67Z"/><path class="cls-1" d="M191.83,72.67l8.63-25.9a1.73,1.73,0,0,0-1.64-2.28H179.14a1.73,1.73,0,0,0-1.69,1.35l-4.66,20.8c-.56,2.38-1,4.3-1.37,6Z"/><path class="cls-1" d="M145.91,72.67H167c-.38-1.82-.83-3.78-1.42-6.2l-4.73-20.64a1.73,1.73,0,0,0-1.69-1.34H139.07a1.74,1.74,0,0,0-1.65,2.27Z"/><path class="cls-1" d="M251,72.67V67.05a1.74,1.74,0,0,0-1.73-1.74H228.65a1.72,1.72,0,0,1-1.73-1.73V61.26a1.73,1.73,0,0,1,1.73-1.73h21.58A1.74,1.74,0,0,0,252,57.8V46.22a1.73,1.73,0,0,0-1.73-1.73H206.92a1.73,1.73,0,0,0-1.74,1.73V72.67Z"/><path class="cls-1" d="M324.26,72.67c-3.22-3.08-8.65-5.87-17.68-8.35-8.35-2.31-10.17-3-10.17-5,0-1.9,1.49-2.64,4-2.64,3.16,0,4.65,1.43,5.23,3.63a1.7,1.7,0,0,0,1.66,1.24h17.59a1.72,1.72,0,0,0,1.71-2C325,50.53,317,43,299.89,43,280,43,274.18,53.41,274.18,61.68c0,4,.76,7.7,4,11Z"/><path class="cls-1" d="M332.52,59.53h11.41a1.74,1.74,0,0,1,1.74,1.73V72.67h22.8V61.26a1.74,1.74,0,0,1,1.74-1.73h11.16a1.73,1.73,0,0,0,1.73-1.73V46.22a1.72,1.72,0,0,0-1.73-1.73H332.52a1.72,1.72,0,0,0-1.73,1.73V57.8A1.73,1.73,0,0,0,332.52,59.53Z"/><path class="cls-1" d="M406.33,72.67c.8-4.44,1.63-9.41,2.47-14.3h.5c.76,4.27,1.8,9.81,2.62,14.3h21.21l-7.77-26.93a1.74,1.74,0,0,0-1.67-1.25H396a1.75,1.75,0,0,0-1.67,1.26l-7.52,26.92Z"/><path class="cls-1" d="M438.79,59.53H450.2a1.73,1.73,0,0,1,1.73,1.73V72.67h22.81V61.26a1.74,1.74,0,0,1,1.74-1.73h11.16a1.73,1.73,0,0,0,1.73-1.73V46.22a1.72,1.72,0,0,0-1.73-1.73H438.79a1.72,1.72,0,0,0-1.73,1.73V57.8A1.73,1.73,0,0,0,438.79,59.53Z"/><path class="cls-1" d="M541,72.67V67.05a1.74,1.74,0,0,0-1.73-1.74H518.7A1.72,1.72,0,0,1,517,63.58V61.26a1.73,1.73,0,0,1,1.73-1.73h21.58A1.74,1.74,0,0,0,542,57.8V46.22a1.73,1.73,0,0,0-1.73-1.73H497a1.73,1.73,0,0,0-1.74,1.73V72.67Z"/><path class="cls-1" d="M81.6,37.34l2.46-10.73a1.73,1.73,0,0,0-1.69-2.12H64.48a1.72,1.72,0,0,0-1.72,1.58c-.29,3.36-.61,7.25-.94,11.27Z"/><path class="cls-1" d="M5.33,37.34H27c-.28-3.9-.55-7.6-.81-11.25a1.73,1.73,0,0,0-1.73-1.6H4.64A1.73,1.73,0,0,0,3,26.6Z"/><path class="cls-1" d="M56.56,37.34c-.51-3.49-1.05-7.12-1.71-11.38a1.72,1.72,0,0,0-1.71-1.47H35.83a1.75,1.75,0,0,0-1.71,1.44c-.72,4.16-1.28,7.82-1.8,11.41Z"/><path class="cls-1" d="M130.47,37.34l-3.34-11.6a1.74,1.74,0,0,0-1.67-1.25H97.75a1.74,1.74,0,0,0-1.67,1.26L92.84,37.34Z"/><path class="cls-1" d="M196.94,37.34l3.52-10.57a1.73,1.73,0,0,0-1.64-2.28H179.14a1.73,1.73,0,0,0-1.69,1.35l-2.57,11.5Z"/><path class="cls-1" d="M140.89,37.34h22.62l-2.64-11.51a1.73,1.73,0,0,0-1.69-1.34H139.07a1.74,1.74,0,0,0-1.65,2.27Z"/><path class="cls-1" d="M252,37.34V26.22a1.73,1.73,0,0,0-1.73-1.73H206.92a1.73,1.73,0,0,0-1.74,1.73V37.34Z"/><path class="cls-1" d="M297.36,37.34a5.19,5.19,0,0,1,3-.7,6.17,6.17,0,0,1,3.11.7H326c-2.46-8-10.46-14.34-26.14-14.34-16.53,0-23.33,7.17-25.16,14.34Z"/><path class="cls-1" d="M383.1,37.34V26.22a1.72,1.72,0,0,0-1.73-1.73H332.52a1.72,1.72,0,0,0-1.73,1.73V37.34Z"/><path class="cls-1" d="M428.7,37.34l-3.34-11.6a1.74,1.74,0,0,0-1.67-1.25H396a1.75,1.75,0,0,0-1.67,1.26l-3.24,11.59Z"/><path class="cls-1" d="M489.37,37.34V26.22a1.72,1.72,0,0,0-1.73-1.73H438.79a1.72,1.72,0,0,0-1.73,1.73V37.34Z"/><path class="cls-1" d="M542,37.34V26.22a1.73,1.73,0,0,0-1.73-1.73H497a1.73,1.73,0,0,0-1.74,1.73V37.34Z"/><path class="cls-1" d="M55.11,4.67C55,4.11,54.94,3.54,54.85,3a1.72,1.72,0,0,0-1.71-1.47H35.83a1.75,1.75,0,0,0-1.71,1.44c-.1.59-.2,1.17-.29,1.74Z"/><path class="cls-1" d="M83.82,4.67l.24-1.06a1.73,1.73,0,0,0-1.69-2.12H64.48a1.72,1.72,0,0,0-1.72,1.58c0,.52-.09,1.06-.14,1.6Z"/><path class="cls-1" d="M3.18,4.67H26.26c0-.53-.08-1-.11-1.58a1.73,1.73,0,0,0-1.73-1.6H4.64A1.73,1.73,0,0,0,3,3.6Z"/><path class="cls-1" d="M127.68,4.67l-.55-1.93a1.74,1.74,0,0,0-1.67-1.25H97.75a1.74,1.74,0,0,0-1.67,1.26l-.53,1.92Z"/><path class="cls-1" d="M200.16,4.67l.3-.9a1.73,1.73,0,0,0-1.64-2.28H179.14a1.73,1.73,0,0,0-1.69,1.35L177,4.67Z"/><path class="cls-1" d="M137.72,4.67h23.57l-.42-1.84a1.73,1.73,0,0,0-1.69-1.34H139.07a1.74,1.74,0,0,0-1.65,2.27Z"/><path class="cls-1" d="M252,4.67V3.22a1.73,1.73,0,0,0-1.73-1.73H206.92a1.73,1.73,0,0,0-1.74,1.73V4.67Z"/><path class="cls-1" d="M318.68,4.67C314.36,1.8,308.21,0,299.89,0s-14.36,1.88-18.36,4.67Z"/><path class="cls-1" d="M383.1,4.67V3.22a1.72,1.72,0,0,0-1.73-1.73H332.52a1.72,1.72,0,0,0-1.73,1.73V4.67Z"/><path class="cls-1" d="M425.92,4.67l-.56-1.93a1.74,1.74,0,0,0-1.67-1.25H396a1.75,1.75,0,0,0-1.67,1.26l-.53,1.92Z"/><path class="cls-1" d="M489.37,4.67V3.22a1.72,1.72,0,0,0-1.73-1.73H438.79a1.72,1.72,0,0,0-1.73,1.73V4.67Z"/><path class="cls-1" d="M542,4.67V3.22a1.73,1.73,0,0,0-1.73-1.73H497a1.73,1.73,0,0,0-1.74,1.73V4.67Z"/><path class="cls-1" d="M83,17.34l1.08-4.73a1.73,1.73,0,0,0-1.69-2.12H64.48a1.72,1.72,0,0,0-1.72,1.58c-.14,1.65-.29,3.42-.44,5.27Z"/><path class="cls-1" d="M55.67,17.34c-.25-1.7-.52-3.48-.82-5.38a1.72,1.72,0,0,0-1.71-1.47H35.83a1.75,1.75,0,0,0-1.71,1.44c-.33,1.89-.62,3.68-.9,5.41Z"/><path class="cls-1" d="M4,17.34H26.53c-.13-1.77-.26-3.52-.38-5.25a1.73,1.73,0,0,0-1.73-1.6H4.64A1.73,1.73,0,0,0,3,12.6Z"/><path class="cls-1" d="M128.74,17.34l-1.61-5.6a1.74,1.74,0,0,0-1.67-1.25H97.75a1.74,1.74,0,0,0-1.67,1.26l-1.56,5.59Z"/><path class="cls-1" d="M198.94,17.34l1.52-4.57a1.73,1.73,0,0,0-1.64-2.28H179.14a1.73,1.73,0,0,0-1.69,1.35l-1.23,5.5Z"/><path class="cls-1" d="M138.92,17.34h23.21l-1.26-5.51a1.73,1.73,0,0,0-1.69-1.34H139.07a1.74,1.74,0,0,0-1.65,2.27Z"/><path class="cls-1" d="M252,17.34V12.22a1.73,1.73,0,0,0-1.73-1.73H206.92a1.73,1.73,0,0,0-1.74,1.73v5.12Z"/><path class="cls-1" d="M322.79,17.34C318.7,12.4,311.35,9,299.89,9c-11.79,0-18.63,3.65-22.24,8.34Z"/><path class="cls-1" d="M383.1,17.34V12.22a1.72,1.72,0,0,0-1.73-1.73H332.52a1.72,1.72,0,0,0-1.73,1.73v5.12Z"/><path class="cls-1" d="M427,17.34l-1.61-5.6a1.74,1.74,0,0,0-1.67-1.25H396a1.75,1.75,0,0,0-1.67,1.26l-1.56,5.59Z"/><path class="cls-1" d="M489.37,17.34V12.22a1.72,1.72,0,0,0-1.73-1.73H438.79a1.72,1.72,0,0,0-1.73,1.73v5.12Z"/><path class="cls-1" d="M542,17.34V12.22a1.73,1.73,0,0,0-1.73-1.73H497a1.73,1.73,0,0,0-1.74,1.73v5.12Z"/></g></g></svg>