<svg xmlns="http://www.w3.org/2000/svg" viewBox="0 0 454 645"><defs><style>.cls-1{stroke:#fff;stroke-miterlimit:10;stroke-width:5px;}</style></defs><g id="Layer_2" data-name="Layer 2"><g id="Layer_1-2" data-name="Layer 1"><path class="cls-1" d="M317.5,642.5h-183c-3.78-2-7.7-3.69-11.28-6-1.59-1-3.54-3.12-3.52-4.71.17-13.3-.27-26.73,1.49-39.86,2.24-16.71,6.64-33.12,9.59-49.76,1.79-10.09,2.58-20.36,3.86-30.54.56-4.44,1.2-8.87,1.87-13.29,1.62-10.82,2.37-21.88,5.2-32.38,2.61-9.69.94-18.07-3.6-26.24-4.11-7.38-8.65-14.54-13.33-21.58-8.17-12.31-16.88-24.28-24.76-36.76a40.88,40.88,0,0,1-5.56-15.13c-.66-4.19-1.89-6-6-6.93-5.57-1.22-10.78-3.43-13.87-8.83C67.46,338,60.47,325.38,52.93,313.09c-2.69-4.39-7-7.77-10.17-11.89-2.08-2.66-4.26-5.62-5-8.79-.94-3.76-2.94-5.91-5.88-8.09-3.92-2.92-8-6-10.82-10C14.45,265,8.63,255.16,2.5,245.5v-3a7.08,7.08,0,0,0,1-1c5.59-9,10.79-18.28,16.9-26.91,2.78-3.93,5.21-7.36,5.3-12.41a15.5,15.5,0,0,1,2.72-7.81c5-7.44,10.34-14.63,15.59-21.9s10.82-14.25,15.72-21.72c7.25-11,14-22.42,21-33.59a47,47,0,0,1,4.66-5.8c5.67-6.43,11.11-13.09,17.27-19,1.79-1.72,5.91-2.23,8.59-1.63,16.73,3.8,32.14,11.15,47.12,19.24a48.06,48.06,0,0,0,23.42,5.71c-2.86-2.38-5.81-5-9.22-5.93-15.31-4.24-29.15-11.65-42.89-19.27-1.47-.81-3.18-3.23-3-4.6a24.16,24.16,0,0,1,3.46-9.33c3.84-5.77,9.5-10.62,12.23-16.82,6.45-14.61,15.83-27.21,24.88-40.1,4.89-7,10.39-13.27,18.22-17.09h6c3.13,1.83,6.15,3.9,9.41,5.45a148.94,148.94,0,0,1,45.47,32.69c2.19,2.33,2.65,4.31,1.16,7-4.36,8-8.31,16.18-13,23.94-8,13.21-16.37,26.19-24.71,39.19-5.32,8.3-9.14,9.59-18.83,6.91-2.36-.65-4.72-1.27-7.08-1.9l-.49,1.22c2.14,1.42,4.13,3.22,6.47,4.21,9.14,3.85,18.39,7.46,27.61,11.14,12.11,4.85,24.22,9.63,35,17.3,5.31,3.77,6.77,8.36,5.54,14.21-1.73,8.26-3.33,16.58-5.69,24.67-1,3.47-3,7.72-5.88,9.37-6.36,3.65-13.33,7.3-20.43,8.36-10.87,1.63-21.71,2.42-31.5,8.05a15.18,15.18,0,0,1-5.67,1.79c-5.3.62-10.85,1.09-15.1-2.91-7.52-7.07-14.64-14.55-22.1-21.68-4.88-4.68-10.05-9.05-15.09-13.56l-1.79.52c.26,10.46,6.61,21.23-1.07,31.3-6.58,8.64-10.42,20-23.77,22,3.32,2.16,6.4,4.24,9.59,4.41,7.78.43,14.24,4,21,7.08,9.32,4.23,18.72,8.42,28.4,11.7,5.32,1.81,9.48,4.35,12.8,8.75,12.76,16.91,23.19,35.43,36.62,51.91,9,11,16.61,23.13,24.7,34.84,12.13,17.58,25.44,34.39,35,53.7,1.71,3.46,1.59,6.07-1.25,8.32a172.28,172.28,0,0,1-15.45,11.54c-7.84,4.9-16.06,9.2-24.13,13.73-1.21.68-2.48,1.25-3.72,1.87l.13,1.42c4.2.45,8.39,1.06,12.6,1.31,5.48.34,11,.41,16.46.55,3.66.09,4.48,2.33,4.85,5.52.6,5.07,1.64,10.09,2.55,15.12.77,4.24,1.9,8.43,2.36,12.7,2.46,22.42,4.92,44.85,7,67.31.8,8.43.6,17,1.05,25.43.25,4.69.89,9.36,1.36,14,5.49-4.9,4.7-10.61,4-16.36-1.23-10.52-3.18-21-3.28-31.59-.23-24.31.58-48.63.7-72.94,0-5.16,2.29-7.85,6.7-9.85a78.14,78.14,0,0,0,13-7.21c4.86-3.46,4.59-5.38-.88-8-7.2-3.47-11.67-9.09-14.35-16.42-6.13-16.77-11.94-33.68-18.59-50.24a231.38,231.38,0,0,0-14.87-30.73c-3.73-6.37-9.59-11.47-14.34-17.26-11.8-14.41-23.6-28.82-35.17-43.42-1.44-1.82-1.44-4.79-2.11-7.22,1.87-.41,3.84-1.41,5.59-1.12,12.1,2,24.24,3.88,36.19,6.57,13.39,3,26.62,6.75,39.86,10.38,8.23,2.26,15.88,5.78,22.32,11.62,9,8.16,18.11,16.16,27.06,24.37,5.08,4.66,9.78,9.75,15,14.27,1,.91,4.14.88,5.32,0,4.06-3,7.63-6.71,11.48-10,11.68-10.11,23.43-20.16,35.09-30.31a37.77,37.77,0,0,0,3.78-4.45,7,7,0,0,0-5.22,1c-6.43,4.62-12.81,9.3-19.06,14.14-7.37,5.7-14.48,11.76-21.93,17.34-5.86,4.4-10.47,4.33-15.63-.69-8.47-8.22-16.36-17-24.76-25.34-4.07-4-3.14-7.4.06-11.1,5.34-6.17,10.89-12.17,15.9-18.59,8.18-10.46,15.57-21.55,24.05-31.75,14.79-17.78,30.13-35.1,45.27-52.6,4.84-5.6,8.05-5.91,13.23-.58,4.51,4.64,8.6,9.71,12.71,14.73,7.54,9.21,14.95,18.53,22.42,27.8v7q-19.31,22.39-38.59,44.81c-2.21,2.58-4.08,5.45-6.1,8.19l1.42,1.27c2.61-1.65,5.16-3.39,7.83-4.91,4.11-2.34,5.9-1.38,5.79,3.39-.3,13.61-2.92,26.72-9.74,38.66-1.92,3.35-2,6.15-1,9.81a29.85,29.85,0,0,1,.67,12.15,387.43,387.43,0,0,1-13.43,56c-2.36,7.36-5.52,13.65-10.62,19.29-4.67,5.17-9.14,10.56-13.28,16.17s-8,11.66-11.7,17.66c-2.92,4.72-7,9.41-7.87,14.55-1.75,10.78-2.08,21.85-2.27,32.82-.52,28.8-.55,57.62-1,86.42-.13,8.8-.79,17.6-1.52,26.37-.48,5.76-1.78,11.46-2.25,17.23-.52,6.26-1.07,7-7.47,7.18C332.75,641.79,325.13,642.17,317.5,642.5Z"/><path class="cls-1" d="M399.25,163c-1.49,4.26-2.27,7.32-3.59,10.14-9.58,20.5-23.42,38.11-37.62,55.49-5,6.18-10.35,12.22-14.71,18.86-9.14,13.91-20.41,25.8-33,36.57-2.63,2.26-5.16,4.5-9.26,2.47-15.56-7.7-31.26-15.09-46.82-22.77a62.39,62.39,0,0,1-9.13-6c-3.14-2.3-3.14-5.13-1-8.24,8.36-12,17.07-23.77,24.89-36.1,9.58-15.09,18.26-30.74,27.6-46,4.33-7.08,9.45-13.66,13.93-20.66,6.09-9.49,12-19.07,17.76-28.79,2.57-4.38,5.93-6.1,10.23-3.55C348,120,357.43,125.56,366.21,132s17.06,13.83,25.22,21.17C394.6,156,396.84,159.89,399.25,163Z"/><path class="cls-1" d="M261.68,191.93c-3.9-6.76-1.47-12.84-.68-18.71.73-5.38,2.44-10.62,3.61-15.95,1-4.49-.63-7.71-4.87-9.72-13.49-6.38-26.88-13-40.43-19.22-5.56-2.57-7.17-4.88-5.34-10.83a41.15,41.15,0,0,1,4.06-9c9.36-15.45,18.73-30.9,28.44-46.13a38.86,38.86,0,0,1,9-9.47c6.06-4.71,12.76-3.17,18.68.19C288.09,61,303.39,66.72,315.2,78.22c2.95,2.87,6.6,5,10,7.42,5.56,3.91,6.55,6.53,5,13.16a84.08,84.08,0,0,1-15.62,33.44c-9.82,12.66-17.76,26.81-27.83,39.25C280.14,179.7,271.21,186.07,261.68,191.93Z"/><path class="cls-1" d="M212.18,258.3c-2.15-1-3.84-1.63-5.41-2.49-8-4.36-16.11-8.53-23.86-13.29-3.21-2-5.62-5.22-8.39-7.89,2.75-1.94,5.31-4.25,8.28-5.77,12.87-6.61,27-8.78,41-11.38,5.69-1,11.27-2.75,17-3.78,1.93-.34,4.94-.19,5.87,1s.56,4.39-.46,5.88c-2.38,3.49-4.94,7.48-8.45,9.4a24.46,24.46,0,0,0-9.29,9.24c-3.33,5.32-6.84,10.56-10.66,15.54C216.53,256.4,214.07,257.15,212.18,258.3Z"/></g></g></svg>