<svg xmlns="http://www.w3.org/2000/svg" xmlns:xlink="http://www.w3.org/1999/xlink" viewBox="0 0 406.59 425.36"><defs><style>.cls-1{stroke:#000;stroke-miterlimit:10;stroke-width:11px;fill:url(#linear-gradient);}</style><linearGradient id="linear-gradient" x1="5.5" y1="212.68" x2="401.09" y2="212.68" gradientUnits="userSpaceOnUse"><stop offset="0" stop-color="lime"/><stop offset="1" stop-color="#fcee21"/></linearGradient></defs><g id="Layer_2" data-name="Layer 2"><g id="Layer_1-2" data-name="Layer 1"><path class="cls-1" d="M217.47,16.1,235,75.64a14.77,14.77,0,0,0,23.18,7.53l49.19-37.86c11.67-9,27.87,2.78,22.93,16.66L309.5,120.45a14.77,14.77,0,0,0,14.33,19.72l62.05-1.71c14.72-.41,20.91,18.63,8.76,26.95l-51.21,35.08a14.77,14.77,0,0,0,0,24.38L394.64,260c12.15,8.33,6,27.36-8.76,27l-62.05-1.72a14.77,14.77,0,0,0-14.33,19.72l20.81,58.48c4.94,13.88-11.26,25.65-22.93,16.66l-49.19-37.86A14.77,14.77,0,0,0,235,349.72l-17.54,59.54c-4.17,14.14-24.18,14.14-28.35,0l-17.54-59.54a14.77,14.77,0,0,0-23.18-7.53L99.21,380.05c-11.67,9-27.87-2.78-22.93-16.66l20.81-58.48a14.77,14.77,0,0,0-14.33-19.72l-62,1.72C6,287.31-.2,268.28,12,260l51.2-35.08a14.77,14.77,0,0,0,0-24.38L12,165.41c-12.16-8.32-6-27.36,8.75-26.95l62.05,1.71a14.77,14.77,0,0,0,14.33-19.72L76.28,62C71.34,48.09,87.54,36.33,99.21,45.31L148.4,83.17a14.77,14.77,0,0,0,23.18-7.53L189.12,16.1C193.29,2,213.3,2,217.47,16.1Z"/></g></g></svg>